<?xml version="1.0" standalone="no"?>
<!DOCTYPE svg PUBLIC "-//W3C//DTD SVG 20010904//EN"
 "http://www.w3.org/TR/2001/REC-SVG-20010904/DTD/svg10.dtd">
<svg version="1.0" xmlns="http://www.w3.org/2000/svg"
 width="96.000000pt" height="96.000000pt" viewBox="0 0 96.000000 96.000000"
 preserveAspectRatio="xMidYMid meet">

<g transform="translate(0.000000,96.000000) scale(0.100000,-0.100000)"
fill="#000000" stroke="none">
<path d="M357 842 c-10 -10 -17 -23 -17 -28 0 -5 23 -32 50 -59 l50 -49 0 -73
c0 -40 -3 -73 -6 -73 -3 0 -32 16 -64 36 l-58 36 -17 75 -17 74 -31 -6 c-18
-4 -35 -10 -39 -14 -4 -3 -1 -32 7 -63 7 -32 10 -60 7 -62 -4 -2 -32 -9 -63
-15 l-57 -12 8 -35 c5 -20 10 -37 12 -39 2 -2 36 3 75 12 l72 16 65 -39 c36
-21 66 -41 66 -44 0 -3 -30 -23 -66 -44 l-65 -39 -72 16 c-39 9 -73 14 -75 12
-2 -2 -7 -19 -12 -39 l-8 -35 57 -12 c31 -6 59 -13 63 -15 3 -2 0 -30 -7 -62
-8 -31 -11 -60 -7 -63 4 -4 21 -10 39 -14 l31 -6 17 74 17 75 58 36 c32 20 61
36 64 36 3 0 6 -32 6 -72 l0 -72 -52 -53 -52 -53 27 -27 27 -27 45 44 45 44
45 -44 45 -44 27 27 27 27 -52 53 -52 53 0 72 c0 40 3 72 6 72 3 0 32 -16 64
-36 l58 -36 17 -75 17 -74 31 6 c18 4 35 10 39 14 4 3 1 32 -7 64 -10 44 -11
59 -2 62 7 2 35 9 63 15 l52 11 -8 35 c-5 20 -10 37 -12 39 -1 2 -35 -4 -75
-13 l-72 -15 -65 39 c-36 21 -66 41 -66 44 0 3 30 23 66 44 l65 39 72 -15 c40
-9 74 -15 75 -13 2 2 7 19 12 39 l8 35 -52 11 c-28 6 -56 13 -63 15 -9 3 -8
18 2 62 8 32 11 61 7 64 -4 4 -21 10 -39 14 l-31 6 -17 -74 -17 -75 -58 -36
c-32 -20 -61 -36 -64 -36 -3 0 -6 32 -6 72 l0 72 52 53 c43 43 51 56 42 70
-26 41 -42 40 -89 -7 l-45 -44 -43 42 c-48 47 -57 50 -80 24z"/>
</g>
</svg>
